<svg version="1.1" viewBox="0 0 56.7 56.7">
	<style type="text/css">
		.st0{fill:url(#SVGID_1_);}
	</style>
	<path d="M28.3,0C12.7,0,0,12.7,0,28.3s12.7,28.3,28.3,28.3C44,56.7,56.7,44,56.7,28.3S44,0,28.3,0z M28.3,39.7
		c-6.3,0-11.3-5.1-11.3-11.3S22.1,17,28.3,17c6.3,0,11.3,5.1,11.3,11.3S34.6,39.7,28.3,39.7z"
	/>
	<linearGradient id="SVGID_1_" gradientUnits="userSpaceOnUse" x1="18.4252" y1="28.3464" x2="38.2677" y2="28.3464">
		<stop  offset="0" style="stop-color:#00DDFF"/>
		<stop  offset="1" style="stop-color:#0044FF"/>
	</linearGradient>
	<path class="st0" d="M28.3,18.4c-5.5,0-9.9,4.4-9.9,9.9s4.4,9.9,9.9,9.9c5.5,0,9.9-4.4,9.9-9.9S33.8,18.4,28.3,18.4z M28.3,29.8
		c-0.8,0-1.4-0.6-1.4-1.4s0.6-1.4,1.4-1.4c0.8,0,1.4,0.6,1.4,1.4S29.1,29.8,28.3,29.8z"
	/>
</svg>